<?xml version="1.0" encoding="UTF-8"?><svg id="Ebene_1" xmlns="http://www.w3.org/2000/svg" viewBox="0 0 89 167"><defs><style>.cls-1{fill:#3f3f3f;}.cls-2{fill:#d8d8d8;stroke:#c6c6c6;}.cls-2,.cls-3{stroke-miterlimit:10;}.cls-3{fill:none;stroke:#e7e6e5;stroke-linecap:round;stroke-width:4px;}</style></defs><rect class="cls-3" x="2" y="2" width="85" height="163" rx="5.96" ry="5.96"/><rect class="cls-2" x="13.5" y="87.51" width="62.17" height="62.26" rx="12.33" ry="12.33"/><rect class="cls-2" x="13.5" y="13.51" width="62.17" height="62.26" rx="12.33" ry="12.33"/><path class="cls-1" d="m46.85,126.4l5.34-9.24c.81-1.4-.2-3.16-1.82-3.16h-10.67c-1.62,0-2.63,1.75-1.82,3.16l5.34,9.24c.81,1.4,2.83,1.4,3.64,0Z"/><path class="cls-1" d="m46.85,38.05l5.34,9.24c.81,1.4-.2,3.16-1.82,3.16h-10.67c-1.62,0-2.63-1.75-1.82-3.16l5.34-9.24c.81-1.4,2.83-1.4,3.64,0Z"/></svg>